<svg xmlns="http://www.w3.org/2000/svg" xmlns:xlink="http://www.w3.org/1999/xlink" viewBox="0 0 48 48" version="1.1">
<g id="surface1">
<path style=" fill:#D50000;" d="M 30 5 C 30 2.789063 27.3125 1 24 1 C 20.6875 1 18 2.789063 18 5 C 18 7.210938 20.6875 9 24 9 C 27.3125 9 30 7.210938 30 5 Z "></path>
<path style=" fill:#82B1FF;" d="M 33 43 C 28.300781 40.101563 33.5 30.300781 35.398438 27.101563 C 40.5 26.300781 43 23.699219 43 21.101563 C 43 16.800781 36.398438 13.101563 27.699219 12.300781 C 27.898438 11.898438 28 11.5 28 11.101563 C 28 9.398438 27.199219 9.300781 27 7.699219 C 27 7.5 27 7.300781 27 7 C 25.300781 5.800781 24 3 24 3 C 24 3 22.699219 6 21 7 C 21 7.300781 21 7.699219 21.101563 8 L 21 8 C 21 9.398438 20 9.398438 20 11 C 20 11.398438 20.101563 11.800781 20.300781 12.199219 C 11.601563 13 5 16.699219 5 21 C 5 23.699219 7.398438 26.101563 12.101563 27 C 12.699219 31.199219 15.898438 47 31 47 C 39 47 42 43 42 43 C 42 43 38.398438 46.398438 33 43 Z "></path>
<path style=" fill:#82B1FF;" d="M 33 43 C 28.300781 40.101563 33.5 30.300781 35.398438 27.101563 C 40.5 26.300781 43 23.699219 43 21.101563 C 43 16.800781 36.398438 13.101563 27.699219 12.300781 C 27.898438 11.898438 28 11.5 28 11.101563 C 28 9.398438 27.199219 9.300781 27 7.699219 C 27 7.5 27 7.300781 27 7 C 25.300781 5.800781 24 3 24 3 C 24 3 22.699219 6 21 7 C 21 7.300781 21 7.699219 21.101563 8 L 21 8 C 21 9.398438 20 9.398438 20 11 C 20 11.398438 20.101563 11.800781 20.300781 12.199219 C 11.601563 13 5 16.699219 5 21 C 5 23.699219 7.398438 26.101563 12.101563 27 C 12.699219 31.199219 15.898438 47 31 47 C 39 47 42 43 42 43 C 42 43 38.398438 46.398438 33 43 Z "></path>
<path style=" fill:#FFC107;" d="M 24 14.800781 C 24 14.800781 27.5 14.800781 27 19.601563 C 30.601563 16.800781 33 17 33 17 C 33 15.300781 32 15 32 15 C 32 15 29.300781 14.199219 24 14.800781 Z "></path>
<path style=" fill:#D50000;" d="M 33.800781 43.398438 C 33.601563 43.300781 33.300781 43.101563 33 43 C 31.601563 42.101563 31.101563 40.699219 31.101563 38.898438 C 28.300781 42.601563 23 43.398438 20.398438 43.5 C 22.5 45.199219 25.300781 46.398438 28.5 46.800781 C 30.300781 46.101563 32.199219 45 33.800781 43.398438 Z "></path>
<path style=" fill:#263238;" d="M 27 7 C 27 7 27.101563 7.300781 27.300781 7.800781 C 27.5 8.300781 27.898438 8.898438 28.300781 9.800781 C 28.5 10.300781 28.601563 10.800781 28.601563 11.398438 C 28.601563 12.199219 28.300781 12.800781 27.800781 13.398438 C 27.300781 13.898438 26.699219 14.398438 26.101563 14.601563 C 25.398438 14.898438 24.800781 15 24 15 L 23.5 15 C 23.300781 15 23.101563 15 22.898438 14.898438 C 22.601563 14.800781 22.199219 14.699219 21.898438 14.601563 C 21.199219 14.300781 20.601563 13.898438 20.199219 13.398438 C 19.699219 12.898438 19.398438 12.199219 19.398438 11.5 L 19.398438 11 C 19.398438 10.898438 19.398438 10.699219 19.5 10.601563 C 19.601563 10.300781 19.601563 10.101563 19.699219 9.800781 C 20.101563 8.898438 20.5 8.300781 20.699219 7.800781 C 20.898438 7.300781 21 7 21 7 C 21 7 21 7.101563 21 7.199219 C 21 7.300781 21.101563 7.601563 21.101563 7.800781 C 21.101563 8.398438 20.898438 9.101563 20.800781 10 C 20.800781 10.199219 20.800781 10.398438 20.800781 10.601563 C 20.800781 10.699219 20.800781 10.800781 20.800781 10.898438 L 20.800781 11.101563 C 20.898438 11.398438 21.101563 11.699219 21.398438 12 C 21.699219 12.300781 22.101563 12.5 22.5 12.601563 C 22.699219 12.699219 22.898438 12.699219 23.199219 12.800781 C 23.300781 12.800781 23.398438 12.800781 23.5 12.800781 C 23.601563 12.800781 23.800781 12.800781 23.898438 12.800781 C 24.300781 12.800781 24.800781 12.699219 25.300781 12.601563 C 25.699219 12.5 26.101563 12.300781 26.398438 12 C 26.699219 11.699219 26.898438 11.398438 27 11.101563 C 27.101563 10.699219 27.101563 10.300781 27.101563 9.898438 C 27 9.101563 26.898438 8.300781 26.898438 7.800781 C 26.898438 7.300781 27 7 27 7 Z "></path>
<path style=" fill:#2979FF;" d="M 35.601563 27 C 35.601563 27 35.5 27 35.5 27 C 35.199219 27.5 34.898438 28.101563 34.5 28.800781 C 34.300781 28.800781 34 28.800781 33.699219 28.699219 C 33.199219 28.601563 32.601563 28.5 32.101563 28.300781 C 31.5 28.101563 30.898438 27.898438 30.300781 27.601563 C 29.699219 27.300781 29 27 28.398438 26.601563 C 28.101563 26.398438 27.800781 26.199219 27.5 26 C 27.199219 25.800781 26.898438 25.5 26.601563 25.300781 C 26 24.800781 25.398438 24.300781 24.800781 23.800781 C 24.601563 23.601563 24.300781 23.398438 24.101563 23.101563 C 23.898438 23.300781 23.601563 23.5 23.398438 23.800781 C 22.800781 24.300781 22.199219 24.800781 21.601563 25.300781 C 21.300781 25.5 21 25.800781 20.699219 26 C 20.398438 26.199219 20.101563 26.398438 19.800781 26.601563 C 19.199219 27 18.5 27.300781 17.898438 27.601563 C 17.300781 27.898438 16.699219 28.101563 16.101563 28.300781 C 15.5 28.5 14.898438 28.601563 14.5 28.699219 C 14 28.800781 13.601563 28.800781 13.300781 28.898438 C 13 28.898438 12.800781 29 12.601563 29 C 12.398438 28.199219 12.300781 27.5 12.300781 27 C 12.5 27 12.800781 27 13.199219 27 C 13.5 27 14 27 14.398438 26.898438 C 14.800781 26.800781 15.300781 26.800781 15.800781 26.699219 C 16.300781 26.5 16.898438 26.398438 17.5 26.199219 C 18.101563 26 18.699219 25.800781 19.300781 25.398438 C 19.601563 25.199219 19.898438 25.101563 20.199219 24.898438 C 20.5 24.699219 20.800781 24.5 21.101563 24.300781 C 21.699219 23.898438 22.300781 23.5 22.898438 23 C 24.101563 22.101563 25.300781 21.101563 26.398438 20.199219 C 27 19.800781 27.5 19.300781 28.101563 19 C 28.601563 18.601563 29.199219 18.300781 29.699219 18 C 30.199219 17.699219 30.699219 17.5 31.101563 17.300781 C 31.601563 17.199219 31.898438 17 32.300781 17 C 33 16.898438 33.300781 16.898438 33.300781 16.898438 C 33.300781 16.898438 32.898438 17 32.300781 17.101563 C 32 17.199219 31.601563 17.300781 31.199219 17.5 C 30.800781 17.699219 30.300781 17.898438 29.898438 18.199219 C 29.398438 18.5 28.898438 18.898438 28.5 19.300781 C 28 19.699219 27.5 20.199219 27 20.699219 C 26.398438 21.300781 25.800781 21.898438 25.101563 22.5 C 25.300781 22.699219 25.5 22.800781 25.800781 23 C 26.398438 23.398438 27 23.898438 27.601563 24.300781 C 27.898438 24.5 28.199219 24.699219 28.5 24.898438 C 28.800781 25.101563 29.101563 25.199219 29.398438 25.398438 C 30 25.699219 30.601563 25.898438 31.199219 26.199219 C 31.800781 26.398438 32.398438 26.5 32.898438 26.699219 C 33.398438 26.800781 33.898438 26.898438 34.300781 26.898438 C 34.699219 27 35.101563 26.898438 35.5 27 C 35.199219 27 35.398438 27 35.601563 27 Z M 32 15 C 32 15 29.898438 14 28.398438 12.300781 C 28.300781 12.699219 28.101563 13 27.800781 13.300781 C 27.300781 13.800781 26.699219 14.300781 26.101563 14.5 C 25.898438 14.601563 25.601563 14.601563 25.398438 14.699219 C 28.101563 14.5 30.5 14.5 32 15 Z M 23.5 14.898438 C 23.300781 14.898438 23.101563 14.898438 22.898438 14.800781 C 22.601563 14.699219 22.199219 14.601563 21.898438 14.5 C 21.199219 14.199219 20.601563 13.800781 20.199219 13.300781 C 19.898438 13 19.699219 12.601563 19.601563 12.199219 C 18 14.199219 15.101563 16.199219 11 17 C 11 17 17.5 15.601563 23.5 14.898438 Z "></path>
</g>
</svg>